<svg xmlns="http://www.w3.org/2000/svg" width="682.667" height="682.667" viewBox="0 0 512 512" preserveAspectRatio="xMidYMid meet"  xmlns:v="https://vecta.io/nano"><path d="M225.9 44.4c-.2.2-4.4.7-9.3 1l-9.5 1c-.3.2-2.9.6-5.8 1l-6.5 1c-.7.3-2.9.7-4.8 1-5.7.9-23.8 6.1-34 9.8-53 19.3-95.2 58-117.3 107.3-7.9 17.7-13.9 38.5-16.3 56.3L21 233c-.8 6.7-.6 46.9.4 53a265.16 265.16 0 0 1 1.1 8c.7 5.8 1.2 8.6 3.6 19.5l2.5 11.2c2.1 10.3 15 40.4 21.5 50.1 1.6 2.4 2.9 4.5 2.9 4.8s3.1 4.7 6.9 9.7c29.6 39 72.6 64.1 127.1 74.1 4.7.9 11 1.8 14 2.2 3 .3 8.2.9 11.5 1.4 3.3.4 67.5.9 142.6.9l136.6.2v-39.6c0-39.5 0-39.5-2.1-39.5-5.5-.2-35.5.3-71.1 1.1-7.8.1-13-.1-13-.7 0-.5 2-2.7 4.4-4.9 16.3-14.6 28.4-30.8 38.1-51 12.7-26.4 17.5-48.4 17.5-80 0-22.3-1.1-32.2-5.6-51.5-7.1-30.5-21.2-58.8-41.1-82.5-11.2-13.3-19.6-21-39.8-36.3-6.5-4.9-37-21.2-39.7-21.2-.3 0-1.9-.6-3.6-1.4-8.4-3.7-32.7-10.7-42.2-12.1-2.3-.3-5-.7-6.2-.9-1.2-.3-4.1-.7-6.5-1.1l-7.8-1.1c-4.1-.7-46.5-1.6-47.1-1zm32.6 91c12 1.1 26.6 5.2 37.6 10.6 47.2 22.8 71.4 75.1 62.4 135-1.2 8.4-1.8 11-4.2 19-11.3 37.6-38.3 65.8-73.9 76.9-29.4 9.3-62.3 7.2-88.7-5.6-13.6-6.6-28.3-18.1-37-29.1-11.1-14.1-21.7-37.1-24.1-52.6-.4-2.1-.8-4.1-1-4.5-.9-1.5-2-16.6-2-28.1s.6-18.5 1.9-25c.3-1.4.7-3.4.9-4.6C134.3 207 147 183 162 168c18.7-18.8 43.9-30.8 68.5-32.6 4.4-.4 8.1-.7 8.3-.9.3-.3 14.3.3 19.7.9z"/></svg>